<?xml version='1.0' encoding='UTF-8'?>
<svg width="74mm" height="74mm" version="1.1" xmlns="http://www.w3.org/2000/svg"><rect x="0" y="0" width="74mm" height="74mm" fill="#ffffff"/><svg:rect xmlns:svg="http://www.w3.org/2000/svg" x="8mm" y="8mm" width="2mm" height="2mm"/><svg:rect xmlns:svg="http://www.w3.org/2000/svg" x="10mm" y="8mm" width="2mm" height="2mm"/><svg:rect xmlns:svg="http://www.w3.org/2000/svg" x="12mm" y="8mm" width="2mm" height="2mm"/><svg:rect xmlns:svg="http://www.w3.org/2000/svg" x="14mm" y="8mm" width="2mm" height="2mm"/><svg:rect xmlns:svg="http://www.w3.org/2000/svg" x="16mm" y="8mm" width="2mm" height="2mm"/><svg:rect xmlns:svg="http://www.w3.org/2000/svg" x="18mm" y="8mm" width="2mm" height="2mm"/><svg:rect xmlns:svg="http://www.w3.org/2000/svg" x="20mm" y="8mm" width="2mm" height="2mm"/><svg:rect xmlns:svg="http://www.w3.org/2000/svg" x="30mm" y="8mm" width="2mm" height="2mm"/><svg:rect xmlns:svg="http://www.w3.org/2000/svg" x="38mm" y="8mm" width="2mm" height="2mm"/><svg:rect xmlns:svg="http://www.w3.org/2000/svg" x="42mm" y="8mm" width="2mm" height="2mm"/><svg:rect xmlns:svg="http://www.w3.org/2000/svg" x="44mm" y="8mm" width="2mm" height="2mm"/><svg:rect xmlns:svg="http://www.w3.org/2000/svg" x="46mm" y="8mm" width="2mm" height="2mm"/><svg:rect xmlns:svg="http://www.w3.org/2000/svg" x="52mm" y="8mm" width="2mm" height="2mm"/><svg:rect xmlns:svg="http://www.w3.org/2000/svg" x="54mm" y="8mm" width="2mm" height="2mm"/><svg:rect xmlns:svg="http://www.w3.org/2000/svg" x="56mm" y="8mm" width="2mm" height="2mm"/><svg:rect xmlns:svg="http://www.w3.org/2000/svg" x="58mm" y="8mm" width="2mm" height="2mm"/><svg:rect xmlns:svg="http://www.w3.org/2000/svg" x="60mm" y="8mm" width="2mm" height="2mm"/><svg:rect xmlns:svg="http://www.w3.org/2000/svg" x="62mm" y="8mm" width="2mm" height="2mm"/><svg:rect xmlns:svg="http://www.w3.org/2000/svg" x="64mm" y="8mm" width="2mm" height="2mm"/><svg:rect xmlns:svg="http://www.w3.org/2000/svg" x="8mm" y="10mm" width="2mm" height="2mm"/><svg:rect xmlns:svg="http://www.w3.org/2000/svg" x="20mm" y="10mm" width="2mm" height="2mm"/><svg:rect xmlns:svg="http://www.w3.org/2000/svg" x="28mm" y="10mm" width="2mm" height="2mm"/><svg:rect xmlns:svg="http://www.w3.org/2000/svg" x="32mm" y="10mm" width="2mm" height="2mm"/><svg:rect xmlns:svg="http://www.w3.org/2000/svg" x="34mm" y="10mm" width="2mm" height="2mm"/><svg:rect xmlns:svg="http://www.w3.org/2000/svg" x="38mm" y="10mm" width="2mm" height="2mm"/><svg:rect xmlns:svg="http://www.w3.org/2000/svg" x="40mm" y="10mm" width="2mm" height="2mm"/><svg:rect xmlns:svg="http://www.w3.org/2000/svg" x="42mm" y="10mm" width="2mm" height="2mm"/><svg:rect xmlns:svg="http://www.w3.org/2000/svg" x="52mm" y="10mm" width="2mm" height="2mm"/><svg:rect xmlns:svg="http://www.w3.org/2000/svg" x="64mm" y="10mm" width="2mm" height="2mm"/><svg:rect xmlns:svg="http://www.w3.org/2000/svg" x="8mm" y="12mm" width="2mm" height="2mm"/><svg:rect xmlns:svg="http://www.w3.org/2000/svg" x="12mm" y="12mm" width="2mm" height="2mm"/><svg:rect xmlns:svg="http://www.w3.org/2000/svg" x="14mm" y="12mm" width="2mm" height="2mm"/><svg:rect xmlns:svg="http://www.w3.org/2000/svg" x="16mm" y="12mm" width="2mm" height="2mm"/><svg:rect xmlns:svg="http://www.w3.org/2000/svg" x="20mm" y="12mm" width="2mm" height="2mm"/><svg:rect xmlns:svg="http://www.w3.org/2000/svg" x="30mm" y="12mm" width="2mm" height="2mm"/><svg:rect xmlns:svg="http://www.w3.org/2000/svg" x="32mm" y="12mm" width="2mm" height="2mm"/><svg:rect xmlns:svg="http://www.w3.org/2000/svg" x="36mm" y="12mm" width="2mm" height="2mm"/><svg:rect xmlns:svg="http://www.w3.org/2000/svg" x="42mm" y="12mm" width="2mm" height="2mm"/><svg:rect xmlns:svg="http://www.w3.org/2000/svg" x="52mm" y="12mm" width="2mm" height="2mm"/><svg:rect xmlns:svg="http://www.w3.org/2000/svg" x="56mm" y="12mm" width="2mm" height="2mm"/><svg:rect xmlns:svg="http://www.w3.org/2000/svg" x="58mm" y="12mm" width="2mm" height="2mm"/><svg:rect xmlns:svg="http://www.w3.org/2000/svg" x="60mm" y="12mm" width="2mm" height="2mm"/><svg:rect xmlns:svg="http://www.w3.org/2000/svg" x="64mm" y="12mm" width="2mm" height="2mm"/><svg:rect xmlns:svg="http://www.w3.org/2000/svg" x="8mm" y="14mm" width="2mm" height="2mm"/><svg:rect xmlns:svg="http://www.w3.org/2000/svg" x="12mm" y="14mm" width="2mm" height="2mm"/><svg:rect xmlns:svg="http://www.w3.org/2000/svg" x="14mm" y="14mm" width="2mm" height="2mm"/><svg:rect xmlns:svg="http://www.w3.org/2000/svg" x="16mm" y="14mm" width="2mm" height="2mm"/><svg:rect xmlns:svg="http://www.w3.org/2000/svg" x="20mm" y="14mm" width="2mm" height="2mm"/><svg:rect xmlns:svg="http://www.w3.org/2000/svg" x="26mm" y="14mm" width="2mm" height="2mm"/><svg:rect xmlns:svg="http://www.w3.org/2000/svg" x="28mm" y="14mm" width="2mm" height="2mm"/><svg:rect xmlns:svg="http://www.w3.org/2000/svg" x="32mm" y="14mm" width="2mm" height="2mm"/><svg:rect xmlns:svg="http://www.w3.org/2000/svg" x="34mm" y="14mm" width="2mm" height="2mm"/><svg:rect xmlns:svg="http://www.w3.org/2000/svg" x="38mm" y="14mm" width="2mm" height="2mm"/><svg:rect xmlns:svg="http://www.w3.org/2000/svg" x="40mm" y="14mm" width="2mm" height="2mm"/><svg:rect xmlns:svg="http://www.w3.org/2000/svg" x="44mm" y="14mm" width="2mm" height="2mm"/><svg:rect xmlns:svg="http://www.w3.org/2000/svg" x="52mm" y="14mm" width="2mm" height="2mm"/><svg:rect xmlns:svg="http://www.w3.org/2000/svg" x="56mm" y="14mm" width="2mm" height="2mm"/><svg:rect xmlns:svg="http://www.w3.org/2000/svg" x="58mm" y="14mm" width="2mm" height="2mm"/><svg:rect xmlns:svg="http://www.w3.org/2000/svg" x="60mm" y="14mm" width="2mm" height="2mm"/><svg:rect xmlns:svg="http://www.w3.org/2000/svg" x="64mm" y="14mm" width="2mm" height="2mm"/><svg:rect xmlns:svg="http://www.w3.org/2000/svg" x="8mm" y="16mm" width="2mm" height="2mm"/><svg:rect xmlns:svg="http://www.w3.org/2000/svg" x="12mm" y="16mm" width="2mm" height="2mm"/><svg:rect xmlns:svg="http://www.w3.org/2000/svg" x="14mm" y="16mm" width="2mm" height="2mm"/><svg:rect xmlns:svg="http://www.w3.org/2000/svg" x="16mm" y="16mm" width="2mm" height="2mm"/><svg:rect xmlns:svg="http://www.w3.org/2000/svg" x="20mm" y="16mm" width="2mm" height="2mm"/><svg:rect xmlns:svg="http://www.w3.org/2000/svg" x="26mm" y="16mm" width="2mm" height="2mm"/><svg:rect xmlns:svg="http://www.w3.org/2000/svg" x="28mm" y="16mm" width="2mm" height="2mm"/><svg:rect xmlns:svg="http://www.w3.org/2000/svg" x="30mm" y="16mm" width="2mm" height="2mm"/><svg:rect xmlns:svg="http://www.w3.org/2000/svg" x="36mm" y="16mm" width="2mm" height="2mm"/><svg:rect xmlns:svg="http://www.w3.org/2000/svg" x="38mm" y="16mm" width="2mm" height="2mm"/><svg:rect xmlns:svg="http://www.w3.org/2000/svg" x="40mm" y="16mm" width="2mm" height="2mm"/><svg:rect xmlns:svg="http://www.w3.org/2000/svg" x="42mm" y="16mm" width="2mm" height="2mm"/><svg:rect xmlns:svg="http://www.w3.org/2000/svg" x="44mm" y="16mm" width="2mm" height="2mm"/><svg:rect xmlns:svg="http://www.w3.org/2000/svg" x="52mm" y="16mm" width="2mm" height="2mm"/><svg:rect xmlns:svg="http://www.w3.org/2000/svg" x="56mm" y="16mm" width="2mm" height="2mm"/><svg:rect xmlns:svg="http://www.w3.org/2000/svg" x="58mm" y="16mm" width="2mm" height="2mm"/><svg:rect xmlns:svg="http://www.w3.org/2000/svg" x="60mm" y="16mm" width="2mm" height="2mm"/><svg:rect xmlns:svg="http://www.w3.org/2000/svg" x="64mm" y="16mm" width="2mm" height="2mm"/><svg:rect xmlns:svg="http://www.w3.org/2000/svg" x="8mm" y="18mm" width="2mm" height="2mm"/><svg:rect xmlns:svg="http://www.w3.org/2000/svg" x="20mm" y="18mm" width="2mm" height="2mm"/><svg:rect xmlns:svg="http://www.w3.org/2000/svg" x="24mm" y="18mm" width="2mm" height="2mm"/><svg:rect xmlns:svg="http://www.w3.org/2000/svg" x="28mm" y="18mm" width="2mm" height="2mm"/><svg:rect xmlns:svg="http://www.w3.org/2000/svg" x="38mm" y="18mm" width="2mm" height="2mm"/><svg:rect xmlns:svg="http://www.w3.org/2000/svg" x="42mm" y="18mm" width="2mm" height="2mm"/><svg:rect xmlns:svg="http://www.w3.org/2000/svg" x="46mm" y="18mm" width="2mm" height="2mm"/><svg:rect xmlns:svg="http://www.w3.org/2000/svg" x="52mm" y="18mm" width="2mm" height="2mm"/><svg:rect xmlns:svg="http://www.w3.org/2000/svg" x="64mm" y="18mm" width="2mm" height="2mm"/><svg:rect xmlns:svg="http://www.w3.org/2000/svg" x="8mm" y="20mm" width="2mm" height="2mm"/><svg:rect xmlns:svg="http://www.w3.org/2000/svg" x="10mm" y="20mm" width="2mm" height="2mm"/><svg:rect xmlns:svg="http://www.w3.org/2000/svg" x="12mm" y="20mm" width="2mm" height="2mm"/><svg:rect xmlns:svg="http://www.w3.org/2000/svg" x="14mm" y="20mm" width="2mm" height="2mm"/><svg:rect xmlns:svg="http://www.w3.org/2000/svg" x="16mm" y="20mm" width="2mm" height="2mm"/><svg:rect xmlns:svg="http://www.w3.org/2000/svg" x="18mm" y="20mm" width="2mm" height="2mm"/><svg:rect xmlns:svg="http://www.w3.org/2000/svg" x="20mm" y="20mm" width="2mm" height="2mm"/><svg:rect xmlns:svg="http://www.w3.org/2000/svg" x="24mm" y="20mm" width="2mm" height="2mm"/><svg:rect xmlns:svg="http://www.w3.org/2000/svg" x="28mm" y="20mm" width="2mm" height="2mm"/><svg:rect xmlns:svg="http://www.w3.org/2000/svg" x="32mm" y="20mm" width="2mm" height="2mm"/><svg:rect xmlns:svg="http://www.w3.org/2000/svg" x="36mm" y="20mm" width="2mm" height="2mm"/><svg:rect xmlns:svg="http://www.w3.org/2000/svg" x="40mm" y="20mm" width="2mm" height="2mm"/><svg:rect xmlns:svg="http://www.w3.org/2000/svg" x="44mm" y="20mm" width="2mm" height="2mm"/><svg:rect xmlns:svg="http://www.w3.org/2000/svg" x="48mm" y="20mm" width="2mm" height="2mm"/><svg:rect xmlns:svg="http://www.w3.org/2000/svg" x="52mm" y="20mm" width="2mm" height="2mm"/><svg:rect xmlns:svg="http://www.w3.org/2000/svg" x="54mm" y="20mm" width="2mm" height="2mm"/><svg:rect xmlns:svg="http://www.w3.org/2000/svg" x="56mm" y="20mm" width="2mm" height="2mm"/><svg:rect xmlns:svg="http://www.w3.org/2000/svg" x="58mm" y="20mm" width="2mm" height="2mm"/><svg:rect xmlns:svg="http://www.w3.org/2000/svg" x="60mm" y="20mm" width="2mm" height="2mm"/><svg:rect xmlns:svg="http://www.w3.org/2000/svg" x="62mm" y="20mm" width="2mm" height="2mm"/><svg:rect xmlns:svg="http://www.w3.org/2000/svg" x="64mm" y="20mm" width="2mm" height="2mm"/><svg:rect xmlns:svg="http://www.w3.org/2000/svg" x="26mm" y="22mm" width="2mm" height="2mm"/><svg:rect xmlns:svg="http://www.w3.org/2000/svg" x="32mm" y="22mm" width="2mm" height="2mm"/><svg:rect xmlns:svg="http://www.w3.org/2000/svg" x="34mm" y="22mm" width="2mm" height="2mm"/><svg:rect xmlns:svg="http://www.w3.org/2000/svg" x="42mm" y="22mm" width="2mm" height="2mm"/><svg:rect xmlns:svg="http://www.w3.org/2000/svg" x="44mm" y="22mm" width="2mm" height="2mm"/><svg:rect xmlns:svg="http://www.w3.org/2000/svg" x="48mm" y="22mm" width="2mm" height="2mm"/><svg:rect xmlns:svg="http://www.w3.org/2000/svg" x="8mm" y="24mm" width="2mm" height="2mm"/><svg:rect xmlns:svg="http://www.w3.org/2000/svg" x="14mm" y="24mm" width="2mm" height="2mm"/><svg:rect xmlns:svg="http://www.w3.org/2000/svg" x="18mm" y="24mm" width="2mm" height="2mm"/><svg:rect xmlns:svg="http://www.w3.org/2000/svg" x="20mm" y="24mm" width="2mm" height="2mm"/><svg:rect xmlns:svg="http://www.w3.org/2000/svg" x="24mm" y="24mm" width="2mm" height="2mm"/><svg:rect xmlns:svg="http://www.w3.org/2000/svg" x="28mm" y="24mm" width="2mm" height="2mm"/><svg:rect xmlns:svg="http://www.w3.org/2000/svg" x="30mm" y="24mm" width="2mm" height="2mm"/><svg:rect xmlns:svg="http://www.w3.org/2000/svg" x="36mm" y="24mm" width="2mm" height="2mm"/><svg:rect xmlns:svg="http://www.w3.org/2000/svg" x="38mm" y="24mm" width="2mm" height="2mm"/><svg:rect xmlns:svg="http://www.w3.org/2000/svg" x="40mm" y="24mm" width="2mm" height="2mm"/><svg:rect xmlns:svg="http://www.w3.org/2000/svg" x="50mm" y="24mm" width="2mm" height="2mm"/><svg:rect xmlns:svg="http://www.w3.org/2000/svg" x="54mm" y="24mm" width="2mm" height="2mm"/><svg:rect xmlns:svg="http://www.w3.org/2000/svg" x="12mm" y="26mm" width="2mm" height="2mm"/><svg:rect xmlns:svg="http://www.w3.org/2000/svg" x="14mm" y="26mm" width="2mm" height="2mm"/><svg:rect xmlns:svg="http://www.w3.org/2000/svg" x="16mm" y="26mm" width="2mm" height="2mm"/><svg:rect xmlns:svg="http://www.w3.org/2000/svg" x="18mm" y="26mm" width="2mm" height="2mm"/><svg:rect xmlns:svg="http://www.w3.org/2000/svg" x="26mm" y="26mm" width="2mm" height="2mm"/><svg:rect xmlns:svg="http://www.w3.org/2000/svg" x="28mm" y="26mm" width="2mm" height="2mm"/><svg:rect xmlns:svg="http://www.w3.org/2000/svg" x="32mm" y="26mm" width="2mm" height="2mm"/><svg:rect xmlns:svg="http://www.w3.org/2000/svg" x="34mm" y="26mm" width="2mm" height="2mm"/><svg:rect xmlns:svg="http://www.w3.org/2000/svg" x="40mm" y="26mm" width="2mm" height="2mm"/><svg:rect xmlns:svg="http://www.w3.org/2000/svg" x="42mm" y="26mm" width="2mm" height="2mm"/><svg:rect xmlns:svg="http://www.w3.org/2000/svg" x="48mm" y="26mm" width="2mm" height="2mm"/><svg:rect xmlns:svg="http://www.w3.org/2000/svg" x="50mm" y="26mm" width="2mm" height="2mm"/><svg:rect xmlns:svg="http://www.w3.org/2000/svg" x="52mm" y="26mm" width="2mm" height="2mm"/><svg:rect xmlns:svg="http://www.w3.org/2000/svg" x="58mm" y="26mm" width="2mm" height="2mm"/><svg:rect xmlns:svg="http://www.w3.org/2000/svg" x="64mm" y="26mm" width="2mm" height="2mm"/><svg:rect xmlns:svg="http://www.w3.org/2000/svg" x="12mm" y="28mm" width="2mm" height="2mm"/><svg:rect xmlns:svg="http://www.w3.org/2000/svg" x="14mm" y="28mm" width="2mm" height="2mm"/><svg:rect xmlns:svg="http://www.w3.org/2000/svg" x="20mm" y="28mm" width="2mm" height="2mm"/><svg:rect xmlns:svg="http://www.w3.org/2000/svg" x="22mm" y="28mm" width="2mm" height="2mm"/><svg:rect xmlns:svg="http://www.w3.org/2000/svg" x="28mm" y="28mm" width="2mm" height="2mm"/><svg:rect xmlns:svg="http://www.w3.org/2000/svg" x="32mm" y="28mm" width="2mm" height="2mm"/><svg:rect xmlns:svg="http://www.w3.org/2000/svg" x="34mm" y="28mm" width="2mm" height="2mm"/><svg:rect xmlns:svg="http://www.w3.org/2000/svg" x="36mm" y="28mm" width="2mm" height="2mm"/><svg:rect xmlns:svg="http://www.w3.org/2000/svg" x="40mm" y="28mm" width="2mm" height="2mm"/><svg:rect xmlns:svg="http://www.w3.org/2000/svg" x="46mm" y="28mm" width="2mm" height="2mm"/><svg:rect xmlns:svg="http://www.w3.org/2000/svg" x="52mm" y="28mm" width="2mm" height="2mm"/><svg:rect xmlns:svg="http://www.w3.org/2000/svg" x="58mm" y="28mm" width="2mm" height="2mm"/><svg:rect xmlns:svg="http://www.w3.org/2000/svg" x="60mm" y="28mm" width="2mm" height="2mm"/><svg:rect xmlns:svg="http://www.w3.org/2000/svg" x="62mm" y="28mm" width="2mm" height="2mm"/><svg:rect xmlns:svg="http://www.w3.org/2000/svg" x="10mm" y="30mm" width="2mm" height="2mm"/><svg:rect xmlns:svg="http://www.w3.org/2000/svg" x="16mm" y="30mm" width="2mm" height="2mm"/><svg:rect xmlns:svg="http://www.w3.org/2000/svg" x="24mm" y="30mm" width="2mm" height="2mm"/><svg:rect xmlns:svg="http://www.w3.org/2000/svg" x="28mm" y="30mm" width="2mm" height="2mm"/><svg:rect xmlns:svg="http://www.w3.org/2000/svg" x="34mm" y="30mm" width="2mm" height="2mm"/><svg:rect xmlns:svg="http://www.w3.org/2000/svg" x="38mm" y="30mm" width="2mm" height="2mm"/><svg:rect xmlns:svg="http://www.w3.org/2000/svg" x="44mm" y="30mm" width="2mm" height="2mm"/><svg:rect xmlns:svg="http://www.w3.org/2000/svg" x="60mm" y="30mm" width="2mm" height="2mm"/><svg:rect xmlns:svg="http://www.w3.org/2000/svg" x="62mm" y="30mm" width="2mm" height="2mm"/><svg:rect xmlns:svg="http://www.w3.org/2000/svg" x="8mm" y="32mm" width="2mm" height="2mm"/><svg:rect xmlns:svg="http://www.w3.org/2000/svg" x="12mm" y="32mm" width="2mm" height="2mm"/><svg:rect xmlns:svg="http://www.w3.org/2000/svg" x="18mm" y="32mm" width="2mm" height="2mm"/><svg:rect xmlns:svg="http://www.w3.org/2000/svg" x="20mm" y="32mm" width="2mm" height="2mm"/><svg:rect xmlns:svg="http://www.w3.org/2000/svg" x="22mm" y="32mm" width="2mm" height="2mm"/><svg:rect xmlns:svg="http://www.w3.org/2000/svg" x="24mm" y="32mm" width="2mm" height="2mm"/><svg:rect xmlns:svg="http://www.w3.org/2000/svg" x="28mm" y="32mm" width="2mm" height="2mm"/><svg:rect xmlns:svg="http://www.w3.org/2000/svg" x="30mm" y="32mm" width="2mm" height="2mm"/><svg:rect xmlns:svg="http://www.w3.org/2000/svg" x="36mm" y="32mm" width="2mm" height="2mm"/><svg:rect xmlns:svg="http://www.w3.org/2000/svg" x="38mm" y="32mm" width="2mm" height="2mm"/><svg:rect xmlns:svg="http://www.w3.org/2000/svg" x="40mm" y="32mm" width="2mm" height="2mm"/><svg:rect xmlns:svg="http://www.w3.org/2000/svg" x="42mm" y="32mm" width="2mm" height="2mm"/><svg:rect xmlns:svg="http://www.w3.org/2000/svg" x="48mm" y="32mm" width="2mm" height="2mm"/><svg:rect xmlns:svg="http://www.w3.org/2000/svg" x="50mm" y="32mm" width="2mm" height="2mm"/><svg:rect xmlns:svg="http://www.w3.org/2000/svg" x="52mm" y="32mm" width="2mm" height="2mm"/><svg:rect xmlns:svg="http://www.w3.org/2000/svg" x="54mm" y="32mm" width="2mm" height="2mm"/><svg:rect xmlns:svg="http://www.w3.org/2000/svg" x="58mm" y="32mm" width="2mm" height="2mm"/><svg:rect xmlns:svg="http://www.w3.org/2000/svg" x="62mm" y="32mm" width="2mm" height="2mm"/><svg:rect xmlns:svg="http://www.w3.org/2000/svg" x="64mm" y="32mm" width="2mm" height="2mm"/><svg:rect xmlns:svg="http://www.w3.org/2000/svg" x="14mm" y="34mm" width="2mm" height="2mm"/><svg:rect xmlns:svg="http://www.w3.org/2000/svg" x="28mm" y="34mm" width="2mm" height="2mm"/><svg:rect xmlns:svg="http://www.w3.org/2000/svg" x="32mm" y="34mm" width="2mm" height="2mm"/><svg:rect xmlns:svg="http://www.w3.org/2000/svg" x="34mm" y="34mm" width="2mm" height="2mm"/><svg:rect xmlns:svg="http://www.w3.org/2000/svg" x="36mm" y="34mm" width="2mm" height="2mm"/><svg:rect xmlns:svg="http://www.w3.org/2000/svg" x="42mm" y="34mm" width="2mm" height="2mm"/><svg:rect xmlns:svg="http://www.w3.org/2000/svg" x="44mm" y="34mm" width="2mm" height="2mm"/><svg:rect xmlns:svg="http://www.w3.org/2000/svg" x="46mm" y="34mm" width="2mm" height="2mm"/><svg:rect xmlns:svg="http://www.w3.org/2000/svg" x="48mm" y="34mm" width="2mm" height="2mm"/><svg:rect xmlns:svg="http://www.w3.org/2000/svg" x="8mm" y="36mm" width="2mm" height="2mm"/><svg:rect xmlns:svg="http://www.w3.org/2000/svg" x="10mm" y="36mm" width="2mm" height="2mm"/><svg:rect xmlns:svg="http://www.w3.org/2000/svg" x="12mm" y="36mm" width="2mm" height="2mm"/><svg:rect xmlns:svg="http://www.w3.org/2000/svg" x="14mm" y="36mm" width="2mm" height="2mm"/><svg:rect xmlns:svg="http://www.w3.org/2000/svg" x="18mm" y="36mm" width="2mm" height="2mm"/><svg:rect xmlns:svg="http://www.w3.org/2000/svg" x="20mm" y="36mm" width="2mm" height="2mm"/><svg:rect xmlns:svg="http://www.w3.org/2000/svg" x="34mm" y="36mm" width="2mm" height="2mm"/><svg:rect xmlns:svg="http://www.w3.org/2000/svg" x="36mm" y="36mm" width="2mm" height="2mm"/><svg:rect xmlns:svg="http://www.w3.org/2000/svg" x="40mm" y="36mm" width="2mm" height="2mm"/><svg:rect xmlns:svg="http://www.w3.org/2000/svg" x="44mm" y="36mm" width="2mm" height="2mm"/><svg:rect xmlns:svg="http://www.w3.org/2000/svg" x="50mm" y="36mm" width="2mm" height="2mm"/><svg:rect xmlns:svg="http://www.w3.org/2000/svg" x="52mm" y="36mm" width="2mm" height="2mm"/><svg:rect xmlns:svg="http://www.w3.org/2000/svg" x="54mm" y="36mm" width="2mm" height="2mm"/><svg:rect xmlns:svg="http://www.w3.org/2000/svg" x="56mm" y="36mm" width="2mm" height="2mm"/><svg:rect xmlns:svg="http://www.w3.org/2000/svg" x="58mm" y="36mm" width="2mm" height="2mm"/><svg:rect xmlns:svg="http://www.w3.org/2000/svg" x="60mm" y="36mm" width="2mm" height="2mm"/><svg:rect xmlns:svg="http://www.w3.org/2000/svg" x="62mm" y="36mm" width="2mm" height="2mm"/><svg:rect xmlns:svg="http://www.w3.org/2000/svg" x="64mm" y="36mm" width="2mm" height="2mm"/><svg:rect xmlns:svg="http://www.w3.org/2000/svg" x="8mm" y="38mm" width="2mm" height="2mm"/><svg:rect xmlns:svg="http://www.w3.org/2000/svg" x="10mm" y="38mm" width="2mm" height="2mm"/><svg:rect xmlns:svg="http://www.w3.org/2000/svg" x="24mm" y="38mm" width="2mm" height="2mm"/><svg:rect xmlns:svg="http://www.w3.org/2000/svg" x="30mm" y="38mm" width="2mm" height="2mm"/><svg:rect xmlns:svg="http://www.w3.org/2000/svg" x="42mm" y="38mm" width="2mm" height="2mm"/><svg:rect xmlns:svg="http://www.w3.org/2000/svg" x="50mm" y="38mm" width="2mm" height="2mm"/><svg:rect xmlns:svg="http://www.w3.org/2000/svg" x="52mm" y="38mm" width="2mm" height="2mm"/><svg:rect xmlns:svg="http://www.w3.org/2000/svg" x="58mm" y="38mm" width="2mm" height="2mm"/><svg:rect xmlns:svg="http://www.w3.org/2000/svg" x="62mm" y="38mm" width="2mm" height="2mm"/><svg:rect xmlns:svg="http://www.w3.org/2000/svg" x="8mm" y="40mm" width="2mm" height="2mm"/><svg:rect xmlns:svg="http://www.w3.org/2000/svg" x="18mm" y="40mm" width="2mm" height="2mm"/><svg:rect xmlns:svg="http://www.w3.org/2000/svg" x="20mm" y="40mm" width="2mm" height="2mm"/><svg:rect xmlns:svg="http://www.w3.org/2000/svg" x="24mm" y="40mm" width="2mm" height="2mm"/><svg:rect xmlns:svg="http://www.w3.org/2000/svg" x="30mm" y="40mm" width="2mm" height="2mm"/><svg:rect xmlns:svg="http://www.w3.org/2000/svg" x="32mm" y="40mm" width="2mm" height="2mm"/><svg:rect xmlns:svg="http://www.w3.org/2000/svg" x="34mm" y="40mm" width="2mm" height="2mm"/><svg:rect xmlns:svg="http://www.w3.org/2000/svg" x="40mm" y="40mm" width="2mm" height="2mm"/><svg:rect xmlns:svg="http://www.w3.org/2000/svg" x="42mm" y="40mm" width="2mm" height="2mm"/><svg:rect xmlns:svg="http://www.w3.org/2000/svg" x="44mm" y="40mm" width="2mm" height="2mm"/><svg:rect xmlns:svg="http://www.w3.org/2000/svg" x="46mm" y="40mm" width="2mm" height="2mm"/><svg:rect xmlns:svg="http://www.w3.org/2000/svg" x="50mm" y="40mm" width="2mm" height="2mm"/><svg:rect xmlns:svg="http://www.w3.org/2000/svg" x="62mm" y="40mm" width="2mm" height="2mm"/><svg:rect xmlns:svg="http://www.w3.org/2000/svg" x="16mm" y="42mm" width="2mm" height="2mm"/><svg:rect xmlns:svg="http://www.w3.org/2000/svg" x="22mm" y="42mm" width="2mm" height="2mm"/><svg:rect xmlns:svg="http://www.w3.org/2000/svg" x="24mm" y="42mm" width="2mm" height="2mm"/><svg:rect xmlns:svg="http://www.w3.org/2000/svg" x="26mm" y="42mm" width="2mm" height="2mm"/><svg:rect xmlns:svg="http://www.w3.org/2000/svg" x="32mm" y="42mm" width="2mm" height="2mm"/><svg:rect xmlns:svg="http://www.w3.org/2000/svg" x="34mm" y="42mm" width="2mm" height="2mm"/><svg:rect xmlns:svg="http://www.w3.org/2000/svg" x="36mm" y="42mm" width="2mm" height="2mm"/><svg:rect xmlns:svg="http://www.w3.org/2000/svg" x="40mm" y="42mm" width="2mm" height="2mm"/><svg:rect xmlns:svg="http://www.w3.org/2000/svg" x="42mm" y="42mm" width="2mm" height="2mm"/><svg:rect xmlns:svg="http://www.w3.org/2000/svg" x="50mm" y="42mm" width="2mm" height="2mm"/><svg:rect xmlns:svg="http://www.w3.org/2000/svg" x="52mm" y="42mm" width="2mm" height="2mm"/><svg:rect xmlns:svg="http://www.w3.org/2000/svg" x="54mm" y="42mm" width="2mm" height="2mm"/><svg:rect xmlns:svg="http://www.w3.org/2000/svg" x="58mm" y="42mm" width="2mm" height="2mm"/><svg:rect xmlns:svg="http://www.w3.org/2000/svg" x="64mm" y="42mm" width="2mm" height="2mm"/><svg:rect xmlns:svg="http://www.w3.org/2000/svg" x="8mm" y="44mm" width="2mm" height="2mm"/><svg:rect xmlns:svg="http://www.w3.org/2000/svg" x="14mm" y="44mm" width="2mm" height="2mm"/><svg:rect xmlns:svg="http://www.w3.org/2000/svg" x="20mm" y="44mm" width="2mm" height="2mm"/><svg:rect xmlns:svg="http://www.w3.org/2000/svg" x="28mm" y="44mm" width="2mm" height="2mm"/><svg:rect xmlns:svg="http://www.w3.org/2000/svg" x="36mm" y="44mm" width="2mm" height="2mm"/><svg:rect xmlns:svg="http://www.w3.org/2000/svg" x="40mm" y="44mm" width="2mm" height="2mm"/><svg:rect xmlns:svg="http://www.w3.org/2000/svg" x="42mm" y="44mm" width="2mm" height="2mm"/><svg:rect xmlns:svg="http://www.w3.org/2000/svg" x="50mm" y="44mm" width="2mm" height="2mm"/><svg:rect xmlns:svg="http://www.w3.org/2000/svg" x="52mm" y="44mm" width="2mm" height="2mm"/><svg:rect xmlns:svg="http://www.w3.org/2000/svg" x="54mm" y="44mm" width="2mm" height="2mm"/><svg:rect xmlns:svg="http://www.w3.org/2000/svg" x="56mm" y="44mm" width="2mm" height="2mm"/><svg:rect xmlns:svg="http://www.w3.org/2000/svg" x="62mm" y="44mm" width="2mm" height="2mm"/><svg:rect xmlns:svg="http://www.w3.org/2000/svg" x="64mm" y="44mm" width="2mm" height="2mm"/><svg:rect xmlns:svg="http://www.w3.org/2000/svg" x="12mm" y="46mm" width="2mm" height="2mm"/><svg:rect xmlns:svg="http://www.w3.org/2000/svg" x="16mm" y="46mm" width="2mm" height="2mm"/><svg:rect xmlns:svg="http://www.w3.org/2000/svg" x="26mm" y="46mm" width="2mm" height="2mm"/><svg:rect xmlns:svg="http://www.w3.org/2000/svg" x="28mm" y="46mm" width="2mm" height="2mm"/><svg:rect xmlns:svg="http://www.w3.org/2000/svg" x="30mm" y="46mm" width="2mm" height="2mm"/><svg:rect xmlns:svg="http://www.w3.org/2000/svg" x="36mm" y="46mm" width="2mm" height="2mm"/><svg:rect xmlns:svg="http://www.w3.org/2000/svg" x="38mm" y="46mm" width="2mm" height="2mm"/><svg:rect xmlns:svg="http://www.w3.org/2000/svg" x="40mm" y="46mm" width="2mm" height="2mm"/><svg:rect xmlns:svg="http://www.w3.org/2000/svg" x="42mm" y="46mm" width="2mm" height="2mm"/><svg:rect xmlns:svg="http://www.w3.org/2000/svg" x="46mm" y="46mm" width="2mm" height="2mm"/><svg:rect xmlns:svg="http://www.w3.org/2000/svg" x="48mm" y="46mm" width="2mm" height="2mm"/><svg:rect xmlns:svg="http://www.w3.org/2000/svg" x="52mm" y="46mm" width="2mm" height="2mm"/><svg:rect xmlns:svg="http://www.w3.org/2000/svg" x="62mm" y="46mm" width="2mm" height="2mm"/><svg:rect xmlns:svg="http://www.w3.org/2000/svg" x="64mm" y="46mm" width="2mm" height="2mm"/><svg:rect xmlns:svg="http://www.w3.org/2000/svg" x="8mm" y="48mm" width="2mm" height="2mm"/><svg:rect xmlns:svg="http://www.w3.org/2000/svg" x="12mm" y="48mm" width="2mm" height="2mm"/><svg:rect xmlns:svg="http://www.w3.org/2000/svg" x="16mm" y="48mm" width="2mm" height="2mm"/><svg:rect xmlns:svg="http://www.w3.org/2000/svg" x="18mm" y="48mm" width="2mm" height="2mm"/><svg:rect xmlns:svg="http://www.w3.org/2000/svg" x="20mm" y="48mm" width="2mm" height="2mm"/><svg:rect xmlns:svg="http://www.w3.org/2000/svg" x="22mm" y="48mm" width="2mm" height="2mm"/><svg:rect xmlns:svg="http://www.w3.org/2000/svg" x="24mm" y="48mm" width="2mm" height="2mm"/><svg:rect xmlns:svg="http://www.w3.org/2000/svg" x="32mm" y="48mm" width="2mm" height="2mm"/><svg:rect xmlns:svg="http://www.w3.org/2000/svg" x="46mm" y="48mm" width="2mm" height="2mm"/><svg:rect xmlns:svg="http://www.w3.org/2000/svg" x="48mm" y="48mm" width="2mm" height="2mm"/><svg:rect xmlns:svg="http://www.w3.org/2000/svg" x="50mm" y="48mm" width="2mm" height="2mm"/><svg:rect xmlns:svg="http://www.w3.org/2000/svg" x="52mm" y="48mm" width="2mm" height="2mm"/><svg:rect xmlns:svg="http://www.w3.org/2000/svg" x="54mm" y="48mm" width="2mm" height="2mm"/><svg:rect xmlns:svg="http://www.w3.org/2000/svg" x="56mm" y="48mm" width="2mm" height="2mm"/><svg:rect xmlns:svg="http://www.w3.org/2000/svg" x="60mm" y="48mm" width="2mm" height="2mm"/><svg:rect xmlns:svg="http://www.w3.org/2000/svg" x="24mm" y="50mm" width="2mm" height="2mm"/><svg:rect xmlns:svg="http://www.w3.org/2000/svg" x="26mm" y="50mm" width="2mm" height="2mm"/><svg:rect xmlns:svg="http://www.w3.org/2000/svg" x="30mm" y="50mm" width="2mm" height="2mm"/><svg:rect xmlns:svg="http://www.w3.org/2000/svg" x="36mm" y="50mm" width="2mm" height="2mm"/><svg:rect xmlns:svg="http://www.w3.org/2000/svg" x="40mm" y="50mm" width="2mm" height="2mm"/><svg:rect xmlns:svg="http://www.w3.org/2000/svg" x="42mm" y="50mm" width="2mm" height="2mm"/><svg:rect xmlns:svg="http://www.w3.org/2000/svg" x="46mm" y="50mm" width="2mm" height="2mm"/><svg:rect xmlns:svg="http://www.w3.org/2000/svg" x="48mm" y="50mm" width="2mm" height="2mm"/><svg:rect xmlns:svg="http://www.w3.org/2000/svg" x="56mm" y="50mm" width="2mm" height="2mm"/><svg:rect xmlns:svg="http://www.w3.org/2000/svg" x="60mm" y="50mm" width="2mm" height="2mm"/><svg:rect xmlns:svg="http://www.w3.org/2000/svg" x="62mm" y="50mm" width="2mm" height="2mm"/><svg:rect xmlns:svg="http://www.w3.org/2000/svg" x="64mm" y="50mm" width="2mm" height="2mm"/><svg:rect xmlns:svg="http://www.w3.org/2000/svg" x="8mm" y="52mm" width="2mm" height="2mm"/><svg:rect xmlns:svg="http://www.w3.org/2000/svg" x="10mm" y="52mm" width="2mm" height="2mm"/><svg:rect xmlns:svg="http://www.w3.org/2000/svg" x="12mm" y="52mm" width="2mm" height="2mm"/><svg:rect xmlns:svg="http://www.w3.org/2000/svg" x="14mm" y="52mm" width="2mm" height="2mm"/><svg:rect xmlns:svg="http://www.w3.org/2000/svg" x="16mm" y="52mm" width="2mm" height="2mm"/><svg:rect xmlns:svg="http://www.w3.org/2000/svg" x="18mm" y="52mm" width="2mm" height="2mm"/><svg:rect xmlns:svg="http://www.w3.org/2000/svg" x="20mm" y="52mm" width="2mm" height="2mm"/><svg:rect xmlns:svg="http://www.w3.org/2000/svg" x="28mm" y="52mm" width="2mm" height="2mm"/><svg:rect xmlns:svg="http://www.w3.org/2000/svg" x="30mm" y="52mm" width="2mm" height="2mm"/><svg:rect xmlns:svg="http://www.w3.org/2000/svg" x="32mm" y="52mm" width="2mm" height="2mm"/><svg:rect xmlns:svg="http://www.w3.org/2000/svg" x="40mm" y="52mm" width="2mm" height="2mm"/><svg:rect xmlns:svg="http://www.w3.org/2000/svg" x="42mm" y="52mm" width="2mm" height="2mm"/><svg:rect xmlns:svg="http://www.w3.org/2000/svg" x="44mm" y="52mm" width="2mm" height="2mm"/><svg:rect xmlns:svg="http://www.w3.org/2000/svg" x="48mm" y="52mm" width="2mm" height="2mm"/><svg:rect xmlns:svg="http://www.w3.org/2000/svg" x="52mm" y="52mm" width="2mm" height="2mm"/><svg:rect xmlns:svg="http://www.w3.org/2000/svg" x="56mm" y="52mm" width="2mm" height="2mm"/><svg:rect xmlns:svg="http://www.w3.org/2000/svg" x="62mm" y="52mm" width="2mm" height="2mm"/><svg:rect xmlns:svg="http://www.w3.org/2000/svg" x="8mm" y="54mm" width="2mm" height="2mm"/><svg:rect xmlns:svg="http://www.w3.org/2000/svg" x="20mm" y="54mm" width="2mm" height="2mm"/><svg:rect xmlns:svg="http://www.w3.org/2000/svg" x="24mm" y="54mm" width="2mm" height="2mm"/><svg:rect xmlns:svg="http://www.w3.org/2000/svg" x="28mm" y="54mm" width="2mm" height="2mm"/><svg:rect xmlns:svg="http://www.w3.org/2000/svg" x="30mm" y="54mm" width="2mm" height="2mm"/><svg:rect xmlns:svg="http://www.w3.org/2000/svg" x="36mm" y="54mm" width="2mm" height="2mm"/><svg:rect xmlns:svg="http://www.w3.org/2000/svg" x="40mm" y="54mm" width="2mm" height="2mm"/><svg:rect xmlns:svg="http://www.w3.org/2000/svg" x="44mm" y="54mm" width="2mm" height="2mm"/><svg:rect xmlns:svg="http://www.w3.org/2000/svg" x="48mm" y="54mm" width="2mm" height="2mm"/><svg:rect xmlns:svg="http://www.w3.org/2000/svg" x="56mm" y="54mm" width="2mm" height="2mm"/><svg:rect xmlns:svg="http://www.w3.org/2000/svg" x="58mm" y="54mm" width="2mm" height="2mm"/><svg:rect xmlns:svg="http://www.w3.org/2000/svg" x="60mm" y="54mm" width="2mm" height="2mm"/><svg:rect xmlns:svg="http://www.w3.org/2000/svg" x="8mm" y="56mm" width="2mm" height="2mm"/><svg:rect xmlns:svg="http://www.w3.org/2000/svg" x="12mm" y="56mm" width="2mm" height="2mm"/><svg:rect xmlns:svg="http://www.w3.org/2000/svg" x="14mm" y="56mm" width="2mm" height="2mm"/><svg:rect xmlns:svg="http://www.w3.org/2000/svg" x="16mm" y="56mm" width="2mm" height="2mm"/><svg:rect xmlns:svg="http://www.w3.org/2000/svg" x="20mm" y="56mm" width="2mm" height="2mm"/><svg:rect xmlns:svg="http://www.w3.org/2000/svg" x="26mm" y="56mm" width="2mm" height="2mm"/><svg:rect xmlns:svg="http://www.w3.org/2000/svg" x="28mm" y="56mm" width="2mm" height="2mm"/><svg:rect xmlns:svg="http://www.w3.org/2000/svg" x="38mm" y="56mm" width="2mm" height="2mm"/><svg:rect xmlns:svg="http://www.w3.org/2000/svg" x="40mm" y="56mm" width="2mm" height="2mm"/><svg:rect xmlns:svg="http://www.w3.org/2000/svg" x="42mm" y="56mm" width="2mm" height="2mm"/><svg:rect xmlns:svg="http://www.w3.org/2000/svg" x="48mm" y="56mm" width="2mm" height="2mm"/><svg:rect xmlns:svg="http://www.w3.org/2000/svg" x="50mm" y="56mm" width="2mm" height="2mm"/><svg:rect xmlns:svg="http://www.w3.org/2000/svg" x="52mm" y="56mm" width="2mm" height="2mm"/><svg:rect xmlns:svg="http://www.w3.org/2000/svg" x="54mm" y="56mm" width="2mm" height="2mm"/><svg:rect xmlns:svg="http://www.w3.org/2000/svg" x="56mm" y="56mm" width="2mm" height="2mm"/><svg:rect xmlns:svg="http://www.w3.org/2000/svg" x="62mm" y="56mm" width="2mm" height="2mm"/><svg:rect xmlns:svg="http://www.w3.org/2000/svg" x="64mm" y="56mm" width="2mm" height="2mm"/><svg:rect xmlns:svg="http://www.w3.org/2000/svg" x="8mm" y="58mm" width="2mm" height="2mm"/><svg:rect xmlns:svg="http://www.w3.org/2000/svg" x="12mm" y="58mm" width="2mm" height="2mm"/><svg:rect xmlns:svg="http://www.w3.org/2000/svg" x="14mm" y="58mm" width="2mm" height="2mm"/><svg:rect xmlns:svg="http://www.w3.org/2000/svg" x="16mm" y="58mm" width="2mm" height="2mm"/><svg:rect xmlns:svg="http://www.w3.org/2000/svg" x="20mm" y="58mm" width="2mm" height="2mm"/><svg:rect xmlns:svg="http://www.w3.org/2000/svg" x="24mm" y="58mm" width="2mm" height="2mm"/><svg:rect xmlns:svg="http://www.w3.org/2000/svg" x="26mm" y="58mm" width="2mm" height="2mm"/><svg:rect xmlns:svg="http://www.w3.org/2000/svg" x="28mm" y="58mm" width="2mm" height="2mm"/><svg:rect xmlns:svg="http://www.w3.org/2000/svg" x="32mm" y="58mm" width="2mm" height="2mm"/><svg:rect xmlns:svg="http://www.w3.org/2000/svg" x="34mm" y="58mm" width="2mm" height="2mm"/><svg:rect xmlns:svg="http://www.w3.org/2000/svg" x="40mm" y="58mm" width="2mm" height="2mm"/><svg:rect xmlns:svg="http://www.w3.org/2000/svg" x="46mm" y="58mm" width="2mm" height="2mm"/><svg:rect xmlns:svg="http://www.w3.org/2000/svg" x="48mm" y="58mm" width="2mm" height="2mm"/><svg:rect xmlns:svg="http://www.w3.org/2000/svg" x="52mm" y="58mm" width="2mm" height="2mm"/><svg:rect xmlns:svg="http://www.w3.org/2000/svg" x="54mm" y="58mm" width="2mm" height="2mm"/><svg:rect xmlns:svg="http://www.w3.org/2000/svg" x="56mm" y="58mm" width="2mm" height="2mm"/><svg:rect xmlns:svg="http://www.w3.org/2000/svg" x="58mm" y="58mm" width="2mm" height="2mm"/><svg:rect xmlns:svg="http://www.w3.org/2000/svg" x="60mm" y="58mm" width="2mm" height="2mm"/><svg:rect xmlns:svg="http://www.w3.org/2000/svg" x="62mm" y="58mm" width="2mm" height="2mm"/><svg:rect xmlns:svg="http://www.w3.org/2000/svg" x="8mm" y="60mm" width="2mm" height="2mm"/><svg:rect xmlns:svg="http://www.w3.org/2000/svg" x="12mm" y="60mm" width="2mm" height="2mm"/><svg:rect xmlns:svg="http://www.w3.org/2000/svg" x="14mm" y="60mm" width="2mm" height="2mm"/><svg:rect xmlns:svg="http://www.w3.org/2000/svg" x="16mm" y="60mm" width="2mm" height="2mm"/><svg:rect xmlns:svg="http://www.w3.org/2000/svg" x="20mm" y="60mm" width="2mm" height="2mm"/><svg:rect xmlns:svg="http://www.w3.org/2000/svg" x="26mm" y="60mm" width="2mm" height="2mm"/><svg:rect xmlns:svg="http://www.w3.org/2000/svg" x="32mm" y="60mm" width="2mm" height="2mm"/><svg:rect xmlns:svg="http://www.w3.org/2000/svg" x="46mm" y="60mm" width="2mm" height="2mm"/><svg:rect xmlns:svg="http://www.w3.org/2000/svg" x="50mm" y="60mm" width="2mm" height="2mm"/><svg:rect xmlns:svg="http://www.w3.org/2000/svg" x="56mm" y="60mm" width="2mm" height="2mm"/><svg:rect xmlns:svg="http://www.w3.org/2000/svg" x="58mm" y="60mm" width="2mm" height="2mm"/><svg:rect xmlns:svg="http://www.w3.org/2000/svg" x="60mm" y="60mm" width="2mm" height="2mm"/><svg:rect xmlns:svg="http://www.w3.org/2000/svg" x="64mm" y="60mm" width="2mm" height="2mm"/><svg:rect xmlns:svg="http://www.w3.org/2000/svg" x="8mm" y="62mm" width="2mm" height="2mm"/><svg:rect xmlns:svg="http://www.w3.org/2000/svg" x="20mm" y="62mm" width="2mm" height="2mm"/><svg:rect xmlns:svg="http://www.w3.org/2000/svg" x="26mm" y="62mm" width="2mm" height="2mm"/><svg:rect xmlns:svg="http://www.w3.org/2000/svg" x="28mm" y="62mm" width="2mm" height="2mm"/><svg:rect xmlns:svg="http://www.w3.org/2000/svg" x="30mm" y="62mm" width="2mm" height="2mm"/><svg:rect xmlns:svg="http://www.w3.org/2000/svg" x="34mm" y="62mm" width="2mm" height="2mm"/><svg:rect xmlns:svg="http://www.w3.org/2000/svg" x="36mm" y="62mm" width="2mm" height="2mm"/><svg:rect xmlns:svg="http://www.w3.org/2000/svg" x="38mm" y="62mm" width="2mm" height="2mm"/><svg:rect xmlns:svg="http://www.w3.org/2000/svg" x="40mm" y="62mm" width="2mm" height="2mm"/><svg:rect xmlns:svg="http://www.w3.org/2000/svg" x="42mm" y="62mm" width="2mm" height="2mm"/><svg:rect xmlns:svg="http://www.w3.org/2000/svg" x="44mm" y="62mm" width="2mm" height="2mm"/><svg:rect xmlns:svg="http://www.w3.org/2000/svg" x="46mm" y="62mm" width="2mm" height="2mm"/><svg:rect xmlns:svg="http://www.w3.org/2000/svg" x="48mm" y="62mm" width="2mm" height="2mm"/><svg:rect xmlns:svg="http://www.w3.org/2000/svg" x="50mm" y="62mm" width="2mm" height="2mm"/><svg:rect xmlns:svg="http://www.w3.org/2000/svg" x="54mm" y="62mm" width="2mm" height="2mm"/><svg:rect xmlns:svg="http://www.w3.org/2000/svg" x="56mm" y="62mm" width="2mm" height="2mm"/><svg:rect xmlns:svg="http://www.w3.org/2000/svg" x="62mm" y="62mm" width="2mm" height="2mm"/><svg:rect xmlns:svg="http://www.w3.org/2000/svg" x="8mm" y="64mm" width="2mm" height="2mm"/><svg:rect xmlns:svg="http://www.w3.org/2000/svg" x="10mm" y="64mm" width="2mm" height="2mm"/><svg:rect xmlns:svg="http://www.w3.org/2000/svg" x="12mm" y="64mm" width="2mm" height="2mm"/><svg:rect xmlns:svg="http://www.w3.org/2000/svg" x="14mm" y="64mm" width="2mm" height="2mm"/><svg:rect xmlns:svg="http://www.w3.org/2000/svg" x="16mm" y="64mm" width="2mm" height="2mm"/><svg:rect xmlns:svg="http://www.w3.org/2000/svg" x="18mm" y="64mm" width="2mm" height="2mm"/><svg:rect xmlns:svg="http://www.w3.org/2000/svg" x="20mm" y="64mm" width="2mm" height="2mm"/><svg:rect xmlns:svg="http://www.w3.org/2000/svg" x="24mm" y="64mm" width="2mm" height="2mm"/><svg:rect xmlns:svg="http://www.w3.org/2000/svg" x="30mm" y="64mm" width="2mm" height="2mm"/><svg:rect xmlns:svg="http://www.w3.org/2000/svg" x="32mm" y="64mm" width="2mm" height="2mm"/><svg:rect xmlns:svg="http://www.w3.org/2000/svg" x="34mm" y="64mm" width="2mm" height="2mm"/><svg:rect xmlns:svg="http://www.w3.org/2000/svg" x="38mm" y="64mm" width="2mm" height="2mm"/><svg:rect xmlns:svg="http://www.w3.org/2000/svg" x="42mm" y="64mm" width="2mm" height="2mm"/><svg:rect xmlns:svg="http://www.w3.org/2000/svg" x="48mm" y="64mm" width="2mm" height="2mm"/><svg:rect xmlns:svg="http://www.w3.org/2000/svg" x="52mm" y="64mm" width="2mm" height="2mm"/><svg:rect xmlns:svg="http://www.w3.org/2000/svg" x="56mm" y="64mm" width="2mm" height="2mm"/><svg:rect xmlns:svg="http://www.w3.org/2000/svg" x="62mm" y="64mm" width="2mm" height="2mm"/></svg>